<svg xmlns="http://www.w3.org/2000/svg" width="12.029" height="17.716" viewBox="0 0 12.029 17.716">
  <g id="Group_77" data-name="Group 77" transform="translate(1765.665 119.37)">
    <path id="Path_39" data-name="Path 39" d="M-1756.253-118.333c-.434,2.016-1,7.589-1,7.589v-1.3l-.148-.236-.384-.325-.443-.207h-.591l-.443.207-.325.325-.266.768v1.329l-.384-1.595-.148-.266-.207-.236-.591-.148h-.413l-.621.384-.324.266-.62-3.514-.207-.384-.424-.324h-.484l-.569.215-.319.493v.6l.319,6.107-.085.694v1.323l.085.507.194.558.2.4.488.8.318.406.422.437.421.35.6.382.74.342.906.231h1.955l1.022-.231,1.181-.609.886-.772.7-.987.352-.868.186-.6.145-.962v-1.075l-.331-1.127-.352-.569.161-2.65.191-2.344.186-1.908v-1.09l-.377-.591-.34-.273a.642.642,0,0,0-.522,0l-.432.136-.3.34c0-.036-.325,2.132-.266,1.909C-1756.5-116.532-1756.114-118.979-1756.253-118.333Z" transform="translate(0 0)" fill="#faf9f5" stroke="#eda600" stroke-width="1"/>
    <path id="Path_40" data-name="Path 40" d="M-1757.45-97.4l.262,2.5.055.452.116.184.141.165.232.141.269.122h.374" transform="translate(-5.152 -14.334)" fill="#faf9f5" stroke="#eda600" stroke-width="1"/>
    <path id="Path_41" data-name="Path 41" d="M-1751.676-87.681l.282-.524.148-.228.215-.2.323-.215.417-.134.591-.108-.591-.524-.417-.081-.4-.067h-.47l-.658-.094-.47-.094-.524-.161-.282-.255-.094-.336-.081-.457.081-.282.094-.215.39-.3h3.024l.4.121.471.175.551.215.5.282.524.323.323.228.47.564" transform="translate(-7.661 -17.969)" fill="#faf9f5" stroke="#eda600" stroke-width="1"/>
  </g>
</svg>
