<svg xmlns="http://www.w3.org/2000/svg" xmlns:xlink="http://www.w3.org/1999/xlink" width="38.038" height="32.738" viewBox="0 0 38.038 32.738">
  <defs>
    <filter id="Path_104" x="0" y="0" width="38.038" height="32.738" filterUnits="userSpaceOnUse">
      <feOffset dy="3" input="SourceAlpha"/>
      <feGaussianBlur stdDeviation="3" result="blur"/>
      <feFlood flood-color="#f3e419" flood-opacity="0.161"/>
      <feComposite operator="in" in2="blur"/>
      <feComposite in="SourceGraphic"/>
    </filter>
  </defs>
  <g id="Group_170" data-name="Group 170" transform="translate(9.05 6.05)">
    <g id="Group_166" data-name="Group 166" transform="translate(0 0)">
      <g transform="matrix(1, 0, 0, 1, -9.05, -6.05)" filter="url(#Path_104)">
        <path id="Path_104-2" data-name="Path 104" d="M-3230.166,317.39l-.217.493-.252.626-.2.553-.289.662-.325.686-.3.71-.169.421-.2.481-.289.481-.373.361-.374.277-.384.229-.47.084h-.542l-.409-.18-.289-.313-.289-.457-.277-.578-.312-.71-.3-.612-.241-.5-.142-.382v-.095l.061-.055.081-.093.037-.122v-.519l-.037-.131-.081-.109-.121-.1-.105-.051-.13-.055-.2-.025-.215.025-.118.147-.08.131-.033.2v.11l.033.156.042.143.038.122.076.126.1.094.1.095.08.06v.82l-.036.637-.044.684-.057.647-.063.619-.1.472-.148.389-.13.222-.212.093h-.074l-.648-2.869v-.1l.041-.072.067-.085.042-.146v-.282l-.076-.118-.074-.091-.149-.1-.1-.046-.139-.034h-.088l-.122.034-.093.046-.08.1-.055.12-.034.122v.194l.034.1.055.1.055.085.067.093.051.079.059.043.063.034h.038l.711,2.905.03.114v.762l-.084.168-.08.131-.072.135-.088.143-.059.105v.094l.219.255.08.119.055.151v.175l-.055.175-.036.178v.712l.036.143.055.118v.159l-.055.157-.08.128-.16.15-.1.164-.1.135-.071.107.071.071.1.128.1.149.088.15v.456l.116.085.09.057h.3l17.563-.009.034-.094v-.378l.055-.17v-.115l.055-.142.055-.126.071-.071.043-.11-.043-.12-.126-.077-.11-.131-.076-.1-.066-.082-.038-.142.038-.2.041-.147.055-.139.046-.147v-.32l-.021-.126v-.131l-.025-.1-.03-.11-.066-.1-.038-.1-.03-.059.068-.093.1-.143.114-.164.088-.126.046-.055v-.169l-.046-.083-.165-.265-.067-.122-.1-.1v-.467l.063-.356.108-.448.071-.529.051-.358.131-.51.122-.463.185-.661.157-.138.118-.105.059-.105.025-.152v-.32l-.025-.147-.1-.139-.114-.084-.143-.08h-.362l-.126.053-.131.088-.067.122-.042.16v.16l.042.211.067.16.025.074v.105l-.025.342-.032.219-.036.238-.065.327-.114.514-.131.354-.057.285-.071.242-.05.242h-.114l-.1-.1-.121-.139-.142-.242-.053-.246-.034-.26-.031-.909-.038-.644-.042-.769-.064-1.15.064-.059.092-.067.063-.088.05-.093.038-.114v-.122l.03-.164v-.23l-.03-.185-.063-.143-.118-.1-.126-.038-.19-.029h-.143l-.143.029-.084.08-.076.093-.067.109-.08.143-.025.181v.3l.051.114.055.105.034.065-.088.134-.717,1.521-.082.259-.087.219-.126.266-.131.279-.121.268-.192.312-.1.142-.132.2-.164.131-.257.06-.3.038h-.567l-.427-.1-.249-.131-.256-.3-.326-.482-.263-.463-.207-.44-.128-.259-.256-.369-.3-.627-.273-.623-.3-.613-.25-.626-.078-.327-.135-.626.047-.086.088-.122.131-.19.05-.168v-.476l-.025-.215-.078-.211-.078-.1-.159-.152-.139-.055h-.438l-.134.055-.221.152-.125.156-.092.152-.063.118-.046.173v.345l.076.253.034.16.092.143Z" transform="translate(3248.72 -309.57)" fill="#eda600" stroke="#fdf7f7" stroke-width="0.1"/>
      </g>
      <path id="Path_105" data-name="Path 105" d="M-3211.9,331.313l.113-.038h.283l.214.038.131.11.109.168.08.215.029.286v.194l-.029.2-.08.181-.135.131-.164.118a.937.937,0,0,1-.156.038c-.038,0-.274,0-.283,0a1.257,1.257,0,0,1-.147-.038l-.113-.072-.139-.109-.076-.1-.059-.152-.038-.2v-.451l.038-.16.135-.152.093-.1.1-.076Z" transform="translate(3221.564 -325.999)" fill="#ed0006" stroke="#fdf7f7" stroke-width="0.1"/>
      <path id="Path_106" data-name="Path 106" d="M-3232.384,333.867l.02-.029.06-.085.093-.084.1-.038h.118l.1.038.084.084.063.147.038.143.03.173.021.168v.168l-.021.135-.067.147-.11.131-.088.08-.088.055h-.084s-.084-.042-.1-.055a1.1,1.1,0,0,1-.093-.08l-.105-.131-.055-.147-.034-.219v-.215l.034-.19.055-.143Z" transform="translate(3234.915 -327.561)" fill="#ed0006" stroke="#fdf7f7" stroke-width="0.1"/>
      <path id="Path_107" data-name="Path 107" d="M-3190.12,333.341h.114l.08.059.076.088.063.143.029.143v.729l-.029.088-.063.093-.076.114-.08.1-.143.067h-.105a.855.855,0,0,1-.147,0,.163.163,0,0,1-.076-.067,1.084,1.084,0,0,0-.105-.135l-.055-.122-.038-.236v-.548l.038-.156.055-.126.076-.084.105-.088.1-.034Z" transform="translate(3207.186 -327.369)" fill="#ed0006" stroke="#fdf7f7" stroke-width="0.1"/>
      <path id="Path_108" data-name="Path 108" d="M-3236.21,342.553l.241-.056.509-.13.463-.13.619-.157.564-.105.535-.072.573-.059.636-.089.789-.071,1-.05h1.053l.761-.05h.748l.769.05.954.05,1.274.079,1.215.108,1.215.132.878.108.83.06h.469l.577.156,1,.2" transform="translate(3237.376 -332.835)" fill="#ffba0c" stroke="#fdf7f7" stroke-width="0.1"/>
      <path id="Path_109" data-name="Path 109" d="M-3236.484,346.052l.178-.093.37-.1.527-.149.47-.093.527-.1.484-.064.569-.078.7-.078.655-.043h1.082l.719-.085h.748l.847-.05a3.545,3.545,0,0,0,.5,0c.048-.024,1.046,0,1.046,0h1.721l1,.05,1.179.128.861.135.7.1.8.085.726.064.441.1.477.128.434.107.1.057" transform="translate(3237.557 -335.172)" fill="#eda600" stroke="#fdf7f7" stroke-width="0.1"/>
    </g>
    <g id="Ellipse_59" data-name="Ellipse 59" transform="translate(2.762 9.494)" fill="#fff" stroke="#fdf7f7" stroke-width="1">
      <ellipse cy="0.5" ry="0.5" stroke="none"/>
      <ellipse cy="0.5" rx="0.5" fill="none"/>
    </g>
    <g id="Ellipse_60" data-name="Ellipse 60" transform="translate(4.762 8.494)" fill="#fff" stroke="#fdf7f7" stroke-width="1">
      <ellipse cy="0.5" ry="0.5" stroke="none"/>
      <ellipse cy="0.5" rx="0.5" fill="none"/>
    </g>
    <g id="Ellipse_61" data-name="Ellipse 61" transform="translate(7.762 8.494)" fill="#fff" stroke="#fdf7f7" stroke-width="1">
      <circle cx="0.5" cy="0.5" r="0.5" stroke="none"/>
      <circle cx="0.5" cy="0.5" fill="none"/>
    </g>
    <g id="Ellipse_62" data-name="Ellipse 62" transform="translate(10.762 8.494)" fill="#fff" stroke="#fdf7f7" stroke-width="1">
      <ellipse cx="1" cy="0.5" rx="1" ry="0.5" stroke="none"/>
      <ellipse cx="1" cy="0.5" rx="0.5" fill="none"/>
    </g>
    <g id="Ellipse_63" data-name="Ellipse 63" transform="translate(14.762 8.494)" fill="#fff" stroke="#fdf7f7" stroke-width="1">
      <circle cx="0.5" cy="0.5" r="0.5" stroke="none"/>
      <circle cx="0.5" cy="0.5" fill="none"/>
    </g>
    <g id="Ellipse_64" data-name="Ellipse 64" transform="translate(17.762 9.494)" fill="#fff" stroke="#fdf7f7" stroke-width="1">
      <circle cx="0.5" cy="0.5" r="0.5" stroke="none"/>
      <circle cx="0.5" cy="0.5" fill="none"/>
    </g>
    <path id="Path_110" data-name="Path 110" d="M-3237.5,353.44l.444-.074.611-.074.722-.065,1.147-.093h7.186l1.861.093,1.689.065h1.486s1.939.164,2.065.148.625,0,.625,0l.387.358.036.15-.121.178-.114.363h-1.938a3.17,3.17,0,0,0-.578,0c-.06.035-.566-.035-.614,0a6.377,6.377,0,0,1-.746.083h-.83s-.746.024-.794,0-.866-.058-1-.083a5.94,5.94,0,0,0-1.035,0c-.12.035-1.242,0-1.242,0s-.831-.017-1.047,0-1.3,0-1.3,0a8.476,8.476,0,0,0-1.2.083,4.175,4.175,0,0,1-.914,0,10.509,10.509,0,0,1-1.13,0,11.456,11.456,0,0,0-1.179,0l-1,.085h-1.376l-.2-.085-.375-.525Z" transform="translate(3238.547 -340.492)" fill="#ffba0c" stroke="#fdf7f7" stroke-width="0.1"/>
  </g>
</svg>
