<svg xmlns="http://www.w3.org/2000/svg" width="19.608" height="17" viewBox="0 0 19.608 17">
  <g id="Group_89" data-name="Group 89" transform="translate(2416 -94)">
    <g id="Group_1" data-name="Group 1" transform="translate(-2416 94)">
      <g id="Ellipse_1" data-name="Ellipse 1" fill="#ffba0c" stroke="#eda600" stroke-width="1">
        <circle cx="4" cy="4" r="4" stroke="none"/>
        <circle cx="4" cy="4" r="3.5" fill="none"/>
      </g>
      <circle id="Ellipse_9" data-name="Ellipse 9" cx="0.5" cy="0.5" r="0.5" transform="translate(4 1)" fill="#ffba0c"/>
      <ellipse id="Ellipse_15" data-name="Ellipse 15" cx="0.5" cy="1" rx="0.5" ry="1" transform="translate(4 3)" fill="#ffba0c"/>
      <ellipse id="Ellipse_10" data-name="Ellipse 10" cx="0.5" cy="1" rx="0.5" ry="1" transform="translate(1 2)" fill="#ffba0c"/>
      <circle id="Ellipse_11" data-name="Ellipse 11" cx="1" cy="1" r="1" transform="translate(6 2)" fill="#ffba0c"/>
      <ellipse id="Ellipse_12" data-name="Ellipse 12" cx="1" cy="0.5" rx="1" ry="0.5" transform="translate(6 5)" fill="#ffba0c"/>
      <circle id="Ellipse_13" data-name="Ellipse 13" cx="0.5" cy="0.5" r="0.5" transform="translate(1 5)" fill="#ffba0c"/>
      <circle id="Ellipse_14" data-name="Ellipse 14" cx="0.5" cy="0.5" r="0.5" transform="translate(4 6)" fill="#ffba0c"/>
    </g>
    <g id="Group_2" data-name="Group 2" transform="translate(-2406.223 94)">
      <g id="Ellipse_1-2" data-name="Ellipse 1" transform="translate(0.223)" fill="#ffba0c" stroke="#eda600" stroke-width="1">
        <circle cx="4" cy="4" r="4" stroke="none"/>
        <circle cx="4" cy="4" r="3.5" fill="none"/>
      </g>
      <circle id="Ellipse_9-2" data-name="Ellipse 9" cx="0.5" cy="0.5" r="0.5" transform="translate(3.223 1)" fill="#ffba0c"/>
      <ellipse id="Ellipse_16" data-name="Ellipse 16" cx="0.5" cy="1" rx="0.5" ry="1" transform="translate(3.223 3)" fill="#ffba0c"/>
      <ellipse id="Ellipse_10-2" data-name="Ellipse 10" cx="0.5" cy="1" rx="0.5" ry="1" transform="translate(1.223 2)" fill="#ffba0c"/>
      <ellipse id="Ellipse_11-2" data-name="Ellipse 11" cx="0.5" cy="1" rx="0.5" ry="1" transform="translate(6.223 2)" fill="#ffba0c"/>
      <circle id="Ellipse_12-2" data-name="Ellipse 12" cx="0.5" cy="0.5" r="0.5" transform="translate(6.223 5)" fill="#ffba0c"/>
      <circle id="Ellipse_13-2" data-name="Ellipse 13" cx="0.5" cy="0.5" r="0.5" transform="translate(1.223 5)" fill="#ffba0c"/>
      <circle id="Ellipse_14-2" data-name="Ellipse 14" cx="0.5" cy="0.5" r="0.5" transform="translate(3.223 6)" fill="#ffba0c"/>
    </g>
    <g id="Rectangle_1" data-name="Rectangle 1" transform="translate(-2414 102)" fill="#ffba0c" stroke="#eda600" stroke-width="1">
      <rect width="13" height="9" rx="3" stroke="none"/>
      <rect x="0.5" y="0.5" width="12" height="8" rx="2.5" fill="none"/>
    </g>
    <g id="Path_1" data-name="Path 1" transform="translate(-2400.314 103.53)" fill="#ffba0c">
      <path d="M 3.42155647277832 5.466228485107422 L 0.4999965727329254 4.288310050964355 L 0.4999965727329254 1.442809820175171 L 3.42155647277832 0.1057071536779404 L 3.42155647277832 5.466228485107422 Z" stroke="none"/>
      <path d="M 2.92155647277832 0.884404182434082 L 0.9999966621398926 1.763834476470947 L 0.9999966621398926 3.950791835784912 L 2.92155647277832 4.725529193878174 L 2.92155647277832 0.884404182434082 M 3.92155647277832 -0.6730079650878906 L 3.92155647277832 6.206932067871094 L -3.337860107421875e-06 4.625832080841064 L -3.337860107421875e-06 1.121752262115479 L 3.92155647277832 -0.6730079650878906 Z" stroke="none" fill="#eda600"/>
    </g>
  </g>
</svg>
